<mxfile host="app.diagrams.net" modified="2024-05-03T21:16:18.981Z" agent="Mozilla/5.0 (Windows NT 10.0; Win64; x64) AppleWebKit/537.36 (KHTML, like Gecko) Chrome/122.0.0.0 YaBrowser/24.4.0.0 Safari/537.36" etag="zB08c_78BPa3uU1-Mbx0" version="24.3.1" type="github">
  <diagram name="Страница — 1" id="4xks9MctieAXZyito7Jj">
    <mxGraphModel dx="1062" dy="1783" grid="1" gridSize="10" guides="1" tooltips="1" connect="1" arrows="1" fold="1" page="1" pageScale="1" pageWidth="827" pageHeight="1169" math="0" shadow="0">
      <root>
        <mxCell id="0" />
        <mxCell id="1" parent="0" />
        <mxCell id="5Kak3x2iOxzygg-4rYfk-8" value="&lt;i&gt;Server Function&lt;/i&gt;" style="swimlane;horizontal=0;whiteSpace=wrap;html=1;dashed=1;dashPattern=1 1;" vertex="1" parent="1">
          <mxGeometry x="60" y="-690" width="730" height="290" as="geometry">
            <mxRectangle x="40" y="220" width="40" height="120" as="alternateBounds" />
          </mxGeometry>
        </mxCell>
        <mxCell id="5Kak3x2iOxzygg-4rYfk-13" value="Twitch Stream Checker" style="rounded=0;whiteSpace=wrap;html=1;fontFamily=Times New Roman;fontStyle=2;fillColor=#e1d5e7;strokeColor=#9673a6;" vertex="1" parent="5Kak3x2iOxzygg-4rYfk-8">
          <mxGeometry x="50" y="180" width="160" height="45" as="geometry" />
        </mxCell>
        <mxCell id="5Kak3x2iOxzygg-4rYfk-14" value="Faceit Statistics Checker" style="rounded=0;whiteSpace=wrap;html=1;fontFamily=Times New Roman;fontStyle=2;fillColor=#e1d5e7;strokeColor=#9673a6;" vertex="1" parent="5Kak3x2iOxzygg-4rYfk-8">
          <mxGeometry x="230" y="180" width="160" height="45" as="geometry" />
        </mxCell>
        <mxCell id="5Kak3x2iOxzygg-4rYfk-39" style="edgeStyle=orthogonalEdgeStyle;rounded=0;orthogonalLoop=1;jettySize=auto;html=1;exitX=0;exitY=0.75;exitDx=0;exitDy=0;entryX=0.75;entryY=1;entryDx=0;entryDy=0;" edge="1" parent="5Kak3x2iOxzygg-4rYfk-8" source="5Kak3x2iOxzygg-4rYfk-17" target="5Kak3x2iOxzygg-4rYfk-13">
          <mxGeometry relative="1" as="geometry">
            <Array as="points">
              <mxPoint x="693" y="280" />
              <mxPoint x="170" y="280" />
            </Array>
          </mxGeometry>
        </mxCell>
        <mxCell id="5Kak3x2iOxzygg-4rYfk-40" style="edgeStyle=orthogonalEdgeStyle;rounded=0;orthogonalLoop=1;jettySize=auto;html=1;exitX=0;exitY=0.5;exitDx=0;exitDy=0;entryX=0.75;entryY=1;entryDx=0;entryDy=0;" edge="1" parent="5Kak3x2iOxzygg-4rYfk-8" source="5Kak3x2iOxzygg-4rYfk-17" target="5Kak3x2iOxzygg-4rYfk-14">
          <mxGeometry relative="1" as="geometry">
            <Array as="points">
              <mxPoint x="680" y="270" />
              <mxPoint x="350" y="270" />
            </Array>
          </mxGeometry>
        </mxCell>
        <mxCell id="5Kak3x2iOxzygg-4rYfk-41" style="edgeStyle=orthogonalEdgeStyle;rounded=0;orthogonalLoop=1;jettySize=auto;html=1;exitX=0;exitY=0.25;exitDx=0;exitDy=0;entryX=0.75;entryY=1;entryDx=0;entryDy=0;" edge="1" parent="5Kak3x2iOxzygg-4rYfk-8" source="5Kak3x2iOxzygg-4rYfk-17" target="5Kak3x2iOxzygg-4rYfk-28">
          <mxGeometry relative="1" as="geometry">
            <Array as="points">
              <mxPoint x="668" y="260" />
              <mxPoint x="530" y="260" />
            </Array>
          </mxGeometry>
        </mxCell>
        <mxCell id="5Kak3x2iOxzygg-4rYfk-17" value="Checker Commands" style="rounded=1;whiteSpace=wrap;html=1;rotation=-90;" vertex="1" parent="5Kak3x2iOxzygg-4rYfk-8">
          <mxGeometry x="620" y="80" width="100" height="50" as="geometry" />
        </mxCell>
        <mxCell id="5Kak3x2iOxzygg-4rYfk-49" style="edgeStyle=orthogonalEdgeStyle;rounded=0;orthogonalLoop=1;jettySize=auto;html=1;exitX=1;exitY=0.25;exitDx=0;exitDy=0;entryX=1;entryY=0.5;entryDx=0;entryDy=0;" edge="1" parent="5Kak3x2iOxzygg-4rYfk-8" source="5Kak3x2iOxzygg-4rYfk-28" target="5Kak3x2iOxzygg-4rYfk-48">
          <mxGeometry relative="1" as="geometry">
            <Array as="points">
              <mxPoint x="580" y="191" />
              <mxPoint x="580" y="154" />
            </Array>
          </mxGeometry>
        </mxCell>
        <mxCell id="5Kak3x2iOxzygg-4rYfk-50" style="edgeStyle=orthogonalEdgeStyle;rounded=0;orthogonalLoop=1;jettySize=auto;html=1;exitX=1;exitY=0.5;exitDx=0;exitDy=0;entryX=1;entryY=0.5;entryDx=0;entryDy=0;" edge="1" parent="5Kak3x2iOxzygg-4rYfk-8" source="5Kak3x2iOxzygg-4rYfk-28" target="5Kak3x2iOxzygg-4rYfk-47">
          <mxGeometry relative="1" as="geometry">
            <Array as="points">
              <mxPoint x="580" y="203" />
              <mxPoint x="580" y="116" />
            </Array>
          </mxGeometry>
        </mxCell>
        <mxCell id="5Kak3x2iOxzygg-4rYfk-51" style="edgeStyle=orthogonalEdgeStyle;rounded=0;orthogonalLoop=1;jettySize=auto;html=1;exitX=1;exitY=0.75;exitDx=0;exitDy=0;entryX=1;entryY=0.5;entryDx=0;entryDy=0;" edge="1" parent="5Kak3x2iOxzygg-4rYfk-8" source="5Kak3x2iOxzygg-4rYfk-28" target="5Kak3x2iOxzygg-4rYfk-46">
          <mxGeometry relative="1" as="geometry">
            <Array as="points">
              <mxPoint x="580" y="214" />
              <mxPoint x="580" y="82" />
            </Array>
          </mxGeometry>
        </mxCell>
        <mxCell id="5Kak3x2iOxzygg-4rYfk-28" value="Music Player" style="rounded=0;whiteSpace=wrap;html=1;fontFamily=Times New Roman;fontStyle=2;fillColor=#e1d5e7;strokeColor=#9673a6;" vertex="1" parent="5Kak3x2iOxzygg-4rYfk-8">
          <mxGeometry x="410" y="180" width="160" height="45" as="geometry" />
        </mxCell>
        <mxCell id="5Kak3x2iOxzygg-4rYfk-53" style="edgeStyle=orthogonalEdgeStyle;rounded=0;orthogonalLoop=1;jettySize=auto;html=1;exitX=0;exitY=0.5;exitDx=0;exitDy=0;entryX=0;entryY=0.5;entryDx=0;entryDy=0;endArrow=none;endFill=0;" edge="1" parent="5Kak3x2iOxzygg-4rYfk-8" source="5Kak3x2iOxzygg-4rYfk-46" target="5Kak3x2iOxzygg-4rYfk-48">
          <mxGeometry relative="1" as="geometry">
            <Array as="points">
              <mxPoint x="460" y="82" />
              <mxPoint x="460" y="154" />
            </Array>
          </mxGeometry>
        </mxCell>
        <mxCell id="5Kak3x2iOxzygg-4rYfk-46" value="Music Player #1" style="rounded=0;whiteSpace=wrap;html=1;fontFamily=Times New Roman;fontStyle=2;fillColor=#e1d5e7;strokeColor=#9673a6;" vertex="1" parent="5Kak3x2iOxzygg-4rYfk-8">
          <mxGeometry x="480" y="68" width="90" height="27.5" as="geometry" />
        </mxCell>
        <mxCell id="5Kak3x2iOxzygg-4rYfk-54" style="edgeStyle=orthogonalEdgeStyle;rounded=0;orthogonalLoop=1;jettySize=auto;html=1;exitX=0;exitY=0.5;exitDx=0;exitDy=0;endArrow=none;endFill=0;" edge="1" parent="5Kak3x2iOxzygg-4rYfk-8" source="5Kak3x2iOxzygg-4rYfk-47">
          <mxGeometry relative="1" as="geometry">
            <mxPoint x="460" y="116.27777777777771" as="targetPoint" />
          </mxGeometry>
        </mxCell>
        <mxCell id="5Kak3x2iOxzygg-4rYfk-47" value="Music Player #2" style="rounded=0;whiteSpace=wrap;html=1;fontFamily=Times New Roman;fontStyle=2;fillColor=#e1d5e7;strokeColor=#9673a6;" vertex="1" parent="5Kak3x2iOxzygg-4rYfk-8">
          <mxGeometry x="480" y="102.5" width="90" height="27.5" as="geometry" />
        </mxCell>
        <mxCell id="5Kak3x2iOxzygg-4rYfk-48" value="Music Player #3" style="rounded=0;whiteSpace=wrap;html=1;fontFamily=Times New Roman;fontStyle=2;fillColor=#e1d5e7;strokeColor=#9673a6;" vertex="1" parent="5Kak3x2iOxzygg-4rYfk-8">
          <mxGeometry x="480" y="140" width="90" height="27.5" as="geometry" />
        </mxCell>
        <mxCell id="5Kak3x2iOxzygg-4rYfk-59" value="" style="html=1;rounded=0;endArrow=none;endFill=0;exitX=0.063;exitY=-0.007;exitDx=0;exitDy=0;exitPerimeter=0;startArrow=classic;startFill=1;" edge="1" parent="5Kak3x2iOxzygg-4rYfk-8">
          <mxGeometry width="100" relative="1" as="geometry">
            <mxPoint x="420.08000000000004" y="179.99500000000006" as="sourcePoint" />
            <mxPoint x="460" y="120" as="targetPoint" />
            <Array as="points">
              <mxPoint x="420" y="120" />
            </Array>
          </mxGeometry>
        </mxCell>
        <mxCell id="5Kak3x2iOxzygg-4rYfk-61" value="Webhook" style="rounded=0;whiteSpace=wrap;html=1;fontFamily=Times New Roman;fontStyle=2;fillColor=#e1d5e7;strokeColor=#9673a6;" vertex="1" parent="5Kak3x2iOxzygg-4rYfk-8">
          <mxGeometry x="80" y="130" width="100" height="30" as="geometry" />
        </mxCell>
        <mxCell id="5Kak3x2iOxzygg-4rYfk-64" style="edgeStyle=orthogonalEdgeStyle;rounded=0;orthogonalLoop=1;jettySize=auto;html=1;exitX=0.75;exitY=0;exitDx=0;exitDy=0;entryX=0.9;entryY=1;entryDx=0;entryDy=0;entryPerimeter=0;" edge="1" parent="5Kak3x2iOxzygg-4rYfk-8" source="5Kak3x2iOxzygg-4rYfk-13" target="5Kak3x2iOxzygg-4rYfk-61">
          <mxGeometry relative="1" as="geometry" />
        </mxCell>
        <mxCell id="5Kak3x2iOxzygg-4rYfk-65" style="edgeStyle=orthogonalEdgeStyle;rounded=0;orthogonalLoop=1;jettySize=auto;html=1;" edge="1" parent="5Kak3x2iOxzygg-4rYfk-8">
          <mxGeometry relative="1" as="geometry">
            <mxPoint x="90" y="160" as="sourcePoint" />
            <mxPoint x="90" y="180" as="targetPoint" />
            <Array as="points">
              <mxPoint x="90" y="160" />
              <mxPoint x="90" y="180" />
            </Array>
          </mxGeometry>
        </mxCell>
        <mxCell id="5Kak3x2iOxzygg-4rYfk-9" value="&lt;i&gt;Server&lt;/i&gt;" style="swimlane;horizontal=0;whiteSpace=wrap;html=1;dashed=1;dashPattern=1 1;" vertex="1" parent="1">
          <mxGeometry x="60" y="-400" width="730" height="290" as="geometry">
            <mxRectangle x="40" y="510" width="40" height="70" as="alternateBounds" />
          </mxGeometry>
        </mxCell>
        <mxCell id="5Kak3x2iOxzygg-4rYfk-3" value="&lt;b style=&quot;font-family: &amp;quot;Times New Roman&amp;quot;; font-size: 15px;&quot;&gt;&lt;i&gt;FoxesServerBot&lt;br&gt;(Python)&lt;/i&gt;&lt;/b&gt;" style="rounded=0;whiteSpace=wrap;html=1;" vertex="1" parent="5Kak3x2iOxzygg-4rYfk-9">
          <mxGeometry x="560" y="230" width="129" height="40" as="geometry" />
        </mxCell>
        <mxCell id="5Kak3x2iOxzygg-4rYfk-10" value="&lt;i&gt;Discord&lt;/i&gt;" style="swimlane;horizontal=0;whiteSpace=wrap;html=1;dashed=1;dashPattern=1 1;" vertex="1" parent="1">
          <mxGeometry x="60" y="-980" width="730" height="290" as="geometry">
            <mxRectangle x="40" y="-70" width="40" height="70" as="alternateBounds" />
          </mxGeometry>
        </mxCell>
        <mxCell id="5Kak3x2iOxzygg-4rYfk-6" value="&lt;font face=&quot;Times New Roman&quot;&gt;&lt;span style=&quot;font-size: 15px;&quot;&gt;&lt;b&gt;&lt;i&gt;Discord&lt;/i&gt;&lt;/b&gt;&lt;/span&gt;&lt;/font&gt;" style="rounded=0;whiteSpace=wrap;html=1;" vertex="1" parent="5Kak3x2iOxzygg-4rYfk-10">
          <mxGeometry x="560" y="20" width="129" height="40" as="geometry" />
        </mxCell>
        <mxCell id="5Kak3x2iOxzygg-4rYfk-20" value="" style="endArrow=none;startArrow=classic;html=1;rounded=0;exitX=1;exitY=0.5;exitDx=0;exitDy=0;entryX=0.846;entryY=0.958;entryDx=0;entryDy=0;entryPerimeter=0;startFill=1;endFill=0;" edge="1" parent="1" source="5Kak3x2iOxzygg-4rYfk-17" target="5Kak3x2iOxzygg-4rYfk-6">
          <mxGeometry width="50" height="50" relative="1" as="geometry">
            <mxPoint x="500" y="-650" as="sourcePoint" />
            <mxPoint x="550" y="-700" as="targetPoint" />
          </mxGeometry>
        </mxCell>
        <mxCell id="5Kak3x2iOxzygg-4rYfk-23" value="information exchange" style="edgeLabel;html=1;align=center;verticalAlign=middle;resizable=0;points=[];rotation=-90;" vertex="1" connectable="0" parent="5Kak3x2iOxzygg-4rYfk-20">
          <mxGeometry x="0.0947" y="1" relative="1" as="geometry">
            <mxPoint x="10" as="offset" />
          </mxGeometry>
        </mxCell>
        <mxCell id="5Kak3x2iOxzygg-4rYfk-33" style="edgeStyle=orthogonalEdgeStyle;rounded=0;orthogonalLoop=1;jettySize=auto;html=1;exitX=0;exitY=0.5;exitDx=0;exitDy=0;entryX=0;entryY=0.5;entryDx=0;entryDy=0;" edge="1" parent="1" source="5Kak3x2iOxzygg-4rYfk-14" target="5Kak3x2iOxzygg-4rYfk-3">
          <mxGeometry relative="1" as="geometry">
            <Array as="points">
              <mxPoint x="280" y="-487" />
              <mxPoint x="280" y="-150" />
            </Array>
          </mxGeometry>
        </mxCell>
        <mxCell id="5Kak3x2iOxzygg-4rYfk-34" style="edgeStyle=orthogonalEdgeStyle;rounded=0;orthogonalLoop=1;jettySize=auto;html=1;exitX=0;exitY=0.5;exitDx=0;exitDy=0;entryX=0;entryY=0.75;entryDx=0;entryDy=0;" edge="1" parent="1" source="5Kak3x2iOxzygg-4rYfk-13" target="5Kak3x2iOxzygg-4rYfk-3">
          <mxGeometry relative="1" as="geometry">
            <Array as="points">
              <mxPoint x="100" y="-487" />
              <mxPoint x="100" y="-140" />
            </Array>
          </mxGeometry>
        </mxCell>
        <mxCell id="5Kak3x2iOxzygg-4rYfk-44" value="" style="html=1;rounded=0;entryX=1;entryY=0.5;entryDx=0;entryDy=0;exitX=1;exitY=0.5;exitDx=0;exitDy=0;strokeWidth=4;endArrow=none;endFill=0;startArrow=classic;startFill=1;" edge="1" parent="1" source="5Kak3x2iOxzygg-4rYfk-6" target="5Kak3x2iOxzygg-4rYfk-3">
          <mxGeometry width="100" relative="1" as="geometry">
            <mxPoint x="800" y="-950" as="sourcePoint" />
            <mxPoint x="690" y="-190" as="targetPoint" />
            <Array as="points">
              <mxPoint x="780" y="-940" />
              <mxPoint x="780" y="-150" />
            </Array>
          </mxGeometry>
        </mxCell>
        <mxCell id="5Kak3x2iOxzygg-4rYfk-60" value="" style="html=1;rounded=0;exitX=0.06;exitY=0.997;exitDx=0;exitDy=0;entryX=0;entryY=0.25;entryDx=0;entryDy=0;exitPerimeter=0;" edge="1" parent="1" source="5Kak3x2iOxzygg-4rYfk-28" target="5Kak3x2iOxzygg-4rYfk-3">
          <mxGeometry width="100" relative="1" as="geometry">
            <mxPoint x="480" y="-340" as="sourcePoint" />
            <mxPoint x="580" y="-340" as="targetPoint" />
            <Array as="points">
              <mxPoint x="480" y="-160" />
            </Array>
          </mxGeometry>
        </mxCell>
      </root>
    </mxGraphModel>
  </diagram>
</mxfile>
